<?xml version="1.0" encoding="utf-8"?>
<!-- Generator: Adobe Illustrator 21.0.0, SVG Export Plug-In . SVG Version: 6.00 Build 0)  -->
<svg version="1.1" id="Layer_1" xmlns="http://www.w3.org/2000/svg" xmlns:xlink="http://www.w3.org/1999/xlink" x="0px" y="0px"
	 viewBox="0 0 512 512" style="enable-background:new 0 0 512 512;" xml:space="preserve">
<g>
	<path d="M507.1,196.9H320c-2.7,0-4.9,2.2-4.9,4.9v68.9c0,2.7,2.2,4.9,4.9,4.9h29.5c2.7,0,4.9-2.2,4.9-4.9v-34.5h36.9v196.9h-28.3
		c-2.7,0-4.9,2.2-4.9,4.9v29.5c0,2.7,2.2,4.9,4.9,4.9H464c2.7,0,4.9-2.2,4.9-4.9v-29.5c0-2.7-2.2-4.9-4.9-4.9h-28.3V236.3h36.9v34.5
		c0,2.7,2.2,4.9,4.9,4.9h29.5c2.7,0,4.9-2.2,4.9-4.9v-68.9C512,199.1,509.8,196.9,507.1,196.9z M344.6,123.1V44.3
		c0-2.7-2.2-4.9-4.9-4.9H4.9c-2.7,0-4.9,2.2-4.9,4.9v78.8c0,2.7,2.2,4.9,4.9,4.9h34.5c2.7,0,4.9-2.2,4.9-4.9V83.7h103.4v344.6H91.1
		c-2.7,0-4.9,2.2-4.9,4.9v34.5c0,2.7,2.2,4.9,4.9,4.9h162.5c2.7,0,4.9-2.2,4.9-4.9v-34.5c0-2.7-2.2-4.9-4.9-4.9h-56.6V83.7h103.4
		v39.4c0,2.7,2.2,4.9,4.9,4.9h34.5C342.4,128,344.6,125.8,344.6,123.1z"/>
</g>
</svg>
