<?xml version="1.0" encoding="iso-8859-1"?>
<!-- Generator: Adobe Illustrator 17.1.0, SVG Export Plug-In . SVG Version: 6.00 Build 0)  -->
<!DOCTYPE svg PUBLIC "-//W3C//DTD SVG 1.1//EN" "http://www.w3.org/Graphics/SVG/1.1/DTD/svg11.dtd">
<svg version="1.1" id="Capa_1" xmlns="http://www.w3.org/2000/svg" xmlns:xlink="http://www.w3.org/1999/xlink" x="0px" y="0px"
	 viewBox="0 0 449.681 449.681" style="enable-background:new 0 0 449.681 449.681;" xml:space="preserve">
<path id="XMLID_265_" d="M249.693,44.18l15.866-22.131c1.502-2.096,3.923-3.339,6.502-3.339s4.999,1.243,6.501,3.338l14.32,19.973
	l23.422,7.448c2.457,0.782,4.387,2.7,5.184,5.152s0.363,5.138-1.166,7.215l-14.57,19.792l0.154,24.575
	c0.016,2.579-1.211,5.007-3.298,6.522c-1.384,1.006-3.034,1.528-4.703,1.528c-0.846,0-1.696-0.134-2.52-0.407l-14.118-4.686
	c-4.194-1.392-6.465-5.919-5.073-10.113c1.392-4.193,5.919-6.467,10.113-5.073l3.529,1.171l-0.101-16.072
	c-0.011-1.724,0.536-3.405,1.558-4.793l9.53-12.945l-15.319-4.871c-1.643-0.522-3.073-1.562-4.077-2.962l-9.365-13.063
	l-9.364,13.062c-2.575,3.591-7.572,4.414-11.163,1.841C247.943,52.769,247.119,47.771,249.693,44.18z M338.826,187.21
	c0,4.418-3.582,8-8,8h-37.893c-4.418,0-8-3.582-8-8v-51.786c0-4.418,3.582-8,8-8h37.893c4.418,0,8,3.582,8,8V187.21z
	 M322.826,143.424h-21.893v35.786h21.893V143.424z M338.826,218.54v51.787c0,4.418-3.582,8-8,8h-37.893c-4.418,0-8-3.582-8-8V218.54
	c0-4.418,3.582-8,8-8h37.893C335.245,210.54,338.826,214.121,338.826,218.54z M322.826,226.54h-21.893v35.787h21.893V226.54z
	 M273.101,83.217l-14.57,19.792l0.155,24.576c0.016,2.579-1.211,5.007-3.298,6.522c-1.384,1.006-3.034,1.528-4.703,1.528
	c-0.846,0-1.696-0.134-2.52-0.407l-23.325-7.741l-23.324,7.741c-2.447,0.811-5.136,0.396-7.222-1.121
	c-2.086-1.516-3.314-3.944-3.298-6.522l0.154-24.576l-14.57-19.792c-1.529-2.077-1.963-4.763-1.166-7.215
	c0.797-2.453,2.727-4.37,5.184-5.152l23.421-7.447l14.32-19.973c1.502-2.096,3.923-3.339,6.501-3.339s4.999,1.243,6.501,3.338
	l14.321,19.973l23.42,7.448c2.458,0.781,4.387,2.699,5.184,5.151S274.63,81.141,273.101,83.217z M253.602,82.717l-15.317-4.871
	c-1.643-0.522-3.073-1.561-4.077-2.962l-9.366-13.063l-9.366,13.063c-1.004,1.401-2.435,2.44-4.077,2.963l-15.318,4.871
	l9.529,12.945c1.022,1.388,1.568,3.069,1.558,4.792l-0.101,16.074l15.254-5.063c0.818-0.271,1.669-0.407,2.52-0.407
	s1.702,0.136,2.52,0.407l15.255,5.063l-0.102-16.073c-0.011-1.724,0.536-3.405,1.558-4.793L253.602,82.717z M214.659,29.65
	l10.182-10.281l10.183,10.281c1.564,1.58,3.624,2.371,5.684,2.371c2.035,0,4.07-0.771,5.629-2.316
	c3.139-3.109,3.164-8.174,0.055-11.313L230.524,2.371C229.022,0.854,226.976,0,224.84,0s-4.182,0.854-5.684,2.371L203.29,18.392
	c-3.109,3.14-3.084,8.205,0.055,11.314C206.485,32.814,211.55,32.791,214.659,29.65z M164.747,187.21c0,4.418-3.582,8-8,8h-37.893
	c-4.418,0-8-3.582-8-8v-51.786c0-4.418,3.582-8,8-8h37.893c4.418,0,8,3.582,8,8V187.21z M148.747,143.424h-21.893v35.786h21.893
	V143.424z M164.747,218.54v51.787c0,4.418-3.582,8-8,8h-37.893c-4.418,0-8-3.582-8-8V218.54c0-4.418,3.582-8,8-8h37.893
	C161.166,210.54,164.747,214.121,164.747,218.54z M148.747,226.54h-21.893v35.787h21.893V226.54z M434.632,411.086v30.595
	c0,4.418-3.582,8-8,8H23.048c-4.418,0-8-3.582-8-8v-30.595c0-4.418,3.582-8,8-8h14.509V221.912c0-4.418,3.582-8,8-8h24.769V86.586
	c0-4.418,3.582-8,8-8h46.296c4.418,0,8,3.582,8,8s-3.582,8-8,8H86.327v308.5h24.528v-67.374c0-12.3,10.007-22.306,22.307-22.306
	h1.328c12.3,0,22.307,10.006,22.307,22.306v67.374h22.152v-81.681c0-14.931,12.146-27.078,27.077-27.078h37.632
	c14.93,0,27.077,12.147,27.077,27.078v81.681h22.151v-67.374c0-12.3,10.006-22.306,22.306-22.306h1.329
	c12.3,0,22.306,10.006,22.306,22.306v67.374h24.528v-308.5h-38.295c-4.418,0-8-3.582-8-8s3.582-8,8-8h46.295c4.418,0,8,3.582,8,8
	v127.326h24.768c4.418,0,8,3.582,8,8v181.174h14.51C431.051,403.086,434.632,406.667,434.632,411.086z M379.354,403.086h16.768
	V229.912h-16.768V403.086z M308.885,403.086h13.941v-67.374c0-3.477-2.829-6.306-6.306-6.306h-1.329
	c-3.477,0-6.306,2.829-6.306,6.306V403.086z M194.949,403.086h59.785v-81.681c0-6.108-4.969-11.078-11.077-11.078h-37.632
	c-6.107,0-11.077,4.969-11.077,11.078V403.086z M126.854,403.086h13.942v-67.374c0-3.477-2.83-6.306-6.307-6.306h-1.328
	c-3.478,0-6.307,2.829-6.307,6.306V403.086z M53.558,403.086h16.769V229.912H53.558V403.086z M418.632,419.086H31.048v14.595
	h387.584V419.086z M251.787,218.54v51.787c0,4.418-3.582,8-8,8h-37.894c-4.418,0-8-3.582-8-8V218.54c0-4.418,3.582-8,8-8h37.894
	C248.206,210.54,251.787,214.121,251.787,218.54z M235.787,226.54h-21.894v35.787h21.894V226.54z M251.787,158.561
	c0-4.418-3.582-8-8-8s-8,3.582-8,8v20.651h-21.894v-20.651c0-4.418-3.582-8-8-8s-8,3.582-8,8v28.651c0,4.418,3.582,8,8,8h37.894
	c4.418,0,8-3.582,8-8V158.561z M143.93,81.629l-0.155,24.575c-0.016,2.578,1.211,5.007,3.297,6.522
	c1.385,1.006,3.035,1.528,4.703,1.528c0.846,0,1.696-0.134,2.519-0.407l14.12-4.686c4.193-1.392,6.465-5.919,5.073-10.112
	c-1.392-4.194-5.922-6.464-10.112-5.073l-3.53,1.171l0.102-16.072c0.011-1.724-0.536-3.405-1.558-4.793l-9.53-12.945l15.319-4.871
	c1.643-0.522,3.073-1.562,4.078-2.963l9.365-13.063l9.366,13.063c2.574,3.59,7.571,4.414,11.163,1.84
	c3.591-2.574,4.415-7.572,1.84-11.163l-15.868-22.131c-1.502-2.096-3.923-3.338-6.501-3.338s-5,1.243-6.502,3.339l-14.319,19.973
	l-23.422,7.448c-2.458,0.782-4.387,2.7-5.184,5.152s-0.363,5.138,1.166,7.215L143.93,81.629z"/>
<g>
</g>
<g>
</g>
<g>
</g>
<g>
</g>
<g>
</g>
<g>
</g>
<g>
</g>
<g>
</g>
<g>
</g>
<g>
</g>
<g>
</g>
<g>
</g>
<g>
</g>
<g>
</g>
<g>
</g>
</svg>
