<svg xmlns="http://www.w3.org/2000/svg" viewBox="0 0 432.49 432.49" style="enable-background:new 0 0 432.49 432.49" xml:space="preserve"><path style="fill:none" d="M178.568 137.364c0 20.775 16.901 37.677 37.677 37.677s37.677-16.901 37.677-37.677c0-20.774-16.901-37.677-37.677-37.677s-37.677 16.903-37.677 37.677zM225.096 370.187a12 12 0 0 1-17.702 0c-.99-1.082-18.303-20.045-40.335-47.596l-99.61 34.143 148.482 51.069 149.109-51.108-99.512-34.227c-22.079 27.616-39.44 46.635-40.432 47.719z"/><path style="fill:#73d0f4" d="M95.855 144.392c0 52.005 80.011 153.768 120.39 199.706 40.379-45.951 120.392-147.736 120.392-199.706C336.636 78.008 282.629 24 216.245 24S95.855 78.008 95.855 144.392zm120.39-68.704c34.009 0 61.677 27.668 61.677 61.677s-27.668 61.677-61.677 61.677-61.677-27.668-61.677-61.677 27.668-61.677 61.677-61.677z"/><path style="fill:#3d6889" d="m405.897 345.366-124.755-42.908a959.487 959.487 0 0 0 10.987-14.721c45.457-62.194 68.507-110.423 68.507-143.346C360.636 64.773 295.862 0 216.245 0S71.855 64.773 71.855 144.392c0 32.923 23.05 81.151 68.507 143.346a964.844 964.844 0 0 0 11.076 14.837L26.606 345.362a12 12 0 0 0-.011 22.7l185.428 63.776a12.025 12.025 0 0 0 7.794.004l186.069-63.776a12 12 0 0 0 .011-22.7zm-69.261-200.974c0 51.97-80.013 153.755-120.392 199.706-40.379-45.938-120.39-147.701-120.39-199.706C95.855 78.008 149.861 24 216.245 24s120.391 54.008 120.391 120.392zM215.932 407.803l-148.483-51.07 99.61-34.143c22.032 27.551 39.345 46.514 40.335 47.596a12.002 12.002 0 0 0 17.702 0c.992-1.084 18.354-20.103 40.434-47.719l99.512 34.227-149.11 51.109z"/><path style="fill:#3d6889" d="M216.245 199.041c34.009 0 61.677-27.668 61.677-61.677s-27.668-61.677-61.677-61.677-61.677 27.668-61.677 61.677 27.668 61.677 61.677 61.677zm37.677-61.677c0 20.775-16.901 37.677-37.677 37.677s-37.677-16.901-37.677-37.677c0-20.774 16.901-37.677 37.677-37.677s37.677 16.903 37.677 37.677z"/></svg>